<?xml version="1.0" encoding="UTF-8"?>
<svg id="vlpa" version="1.1" viewBox="0 0 900.4 393.1" xmlns="http://www.w3.org/2000/svg" xmlns:cc="http://creativecommons.org/ns#" xmlns:dc="http://purl.org/dc/elements/1.1/" xmlns:rdf="http://www.w3.org/1999/02/22-rdf-syntax-ns#">
 <metadata>
  <rdf:RDF>
   <cc:Work rdf:about="">
    <dc:format>image/svg+xml</dc:format>
    <dc:type rdf:resource="http://purl.org/dc/dcmitype/StillImage"/>
    <dc:title>SYCL logo</dc:title>
   </cc:Work>
  </rdf:RDF>
 </metadata>
 <defs>
  <style>.cls-1{fill:#f35a1c;}.cls-2{isolation:isolate;}</style>
 </defs>
 <title>SYCL logo</title>
 <desc>A single-source C++ domain specific language for heterogenous computing by Khronos Group</desc>
 <path class="cls-1" d="m576.8 306.2c-49.89 27.84-120.5 47.1-201.1 47.1-145.2 0-262.9-58-262.9-153 0-101 117.7-156.7 262.9-156.7 80.89 0 151.8 15.72 201.7 43-54.45-45.67-152.1-86.58-263.7-86.6-171-0.07-309.6 89.62-309.6 200.2 0 100.4 138.6 192.8 309.5 192.8 111.2 0.02 208.6-40.29 263.2-86.9z" style="fill:#f35a1c;stroke-width:.9965"/>
 <g id="vlpb" class="cls-2" transform="translate(-2.831)" style="isolation:isolate">
  <path class="cls-1" transform="translate(-103.3,-56.07)" d="m973.4 328h-7.37v19.1h-6.4v-19.1h-7.35v-5.52h21.11v5.52z" style="fill:#f35a1c"/>
  <path class="cls-1" transform="translate(-103.3,-56.07)" d="m976.2 322.5h9.45l4.24 16.42h0.08l4.24-16.42h9.45v24.64h-6v-18.7h-0.07l-5.17 18.7h-4.9l-5.18-18.7h-0.07v18.7h-6v-24.64z" style="fill:#f35a1c"/>
 </g>
 <path class="cls-1" transform="translate(-103.3,-56.07)" d="m317.9 283.7q0 9.59 3.47 16.25a30.26 30.26 0 0 0 9.19 10.79 39.8 39.8 0 0 0 13.47 6.13 63.62 63.62 0 0 0 16 2 83.29 83.29 0 0 0 12-0.93 41.74 41.74 0 0 0 12-3.6 26.15 26.15 0 0 0 9.33-7.33q3.67-4.66 3.67-11.85a16.69 16.69 0 0 0-4.93-12.52 39.1 39.1 0 0 0-12.93-8 129.1 129.1 0 0 0-18.12-5.6q-10.13-2.4-20.52-5.33a182.3 182.3 0 0 1-20.79-6.53 71.44 71.44 0 0 1-18.12-10 47.06 47.06 0 0 1-12.92-15.32q-4.93-9.19-4.93-22.25 0-14.66 6.26-25.45a56.74 56.74 0 0 1 16.39-18 71.4 71.4 0 0 1 22.92-10.66 97.49 97.49 0 0 1 25.58-3.46 121 121 0 0 1 28.65 3.33 71.46 71.46 0 0 1 24.38 10.79 54.58 54.58 0 0 1 16.92 19.05q6.26 11.59 6.26 28.11h-40.5a33.64 33.64 0 0 0-3.6-14.12 23.55 23.55 0 0 0-8.13-8.79 34.38 34.38 0 0 0-11.59-4.53 71.73 71.73 0 0 0-14.28-1.31 48.73 48.73 0 0 0-10.13 1.07 27 27 0 0 0-9.19 3.73 23.14 23.14 0 0 0-6.8 6.66 17.89 17.89 0 0 0-2.66 10.13 17.1 17.1 0 0 0 2.13 9.06q2.13 3.46 8.39 6.4a107.3 107.3 0 0 0 17.32 5.86q11.11 2.92 28.94 7.48 5.33 1.07 14.79 3.86a70.9 70.9 0 0 1 18.79 8.93 56.79 56.79 0 0 1 16.12 16.39q6.8 10.26 6.8 26.25a58.12 58.12 0 0 1-5.06 24.25 52.68 52.68 0 0 1-15.04 19.32q-10 8.13-24.78 12.66t-34.24 4.53a120.2 120.2 0 0 1-30.51-3.86 76.74 76.74 0 0 1-26.12-12.12 59.89 59.89 0 0 1-18-21.05q-6.66-12.79-6.4-30.38h40.5z" style="fill:#f35a1c"/>
 <path class="cls-1" transform="translate(-103.3,-56.07)" d="m498 272.8-69.81-116.2h46.9l44.5 75.15 44.24-75.15h46.63l-70.62 117.2v73h-41.84z" style="fill:#f35a1c"/>
 <path class="cls-1" transform="translate(-103.3,-56.07)" d="m739.7 220.6a34.15 34.15 0 0 0-4.8-13.19 42.05 42.05 0 0 0-9.33-10.53 43 43 0 0 0-12.66-7.06 43.55 43.55 0 0 0-14.79-2.53q-14.12 0-24 5.46a45.28 45.28 0 0 0-16 14.66 64.22 64.22 0 0 0-8.93 20.92 104.1 104.1 0 0 0-2.8 24.25 96.82 96.82 0 0 0 2.8 23.32 63 63 0 0 0 8.93 20.39 45.75 45.75 0 0 0 16 14.52q9.86 5.46 24 5.46 19.19 0 30-11.72t13.19-30.91h40.51a96.68 96.68 0 0 1-8.26 32.24 77.24 77.24 0 0 1-17.56 24.51 74.74 74.74 0 0 1-25.58 15.46 93.71 93.71 0 0 1-32.24 5.33q-21.85 0-39.31-7.59a84.22 84.22 0 0 1-29.45-20.92 92.56 92.56 0 0 1-18.42-31.32 114.9 114.9 0 0 1-6.4-38.77 118.9 118.9 0 0 1 6.4-39.56 95 95 0 0 1 18.39-31.84 84.06 84.06 0 0 1 29.45-21.32q17.46-7.73 39.31-7.73a95.87 95.87 0 0 1 29.71 4.53 80.46 80.46 0 0 1 25 13.19 71.28 71.28 0 0 1 18.25 21.45 76.69 76.69 0 0 1 9.06 29.31h-40.47z" style="fill:#f35a1c"/>
 <path class="cls-1" transform="translate(-103.3,-56.07)" d="m796.7 156.6h41.84v155.1h92.73v35.18h-134.6z" style="fill:#f35a1c"/>
</svg>